<svg width="16" height="18" viewBox="0 0 16 18" fill="none" xmlns="http://www.w3.org/2000/svg">
<path d="M5.25 2.58333C4.74374 2.58333 4.33333 2.99374 4.33333 3.5C4.33333 4.00626 4.74374 4.41667 5.25 4.41667C5.75626 4.41667 6.16667 4.00626 6.16667 3.5C6.16667 2.99374 5.75626 2.58333 5.25 2.58333ZM2.65648 2.58333C3.034 1.51524 4.05263 0.75 5.25 0.75C6.44737 0.75 7.466 1.51524 7.84352 2.58333H14.4167C14.9229 2.58333 15.3333 2.99374 15.3333 3.5C15.3333 4.00626 14.9229 4.41667 14.4167 4.41667H7.84352C7.466 5.48476 6.44737 6.25 5.25 6.25C4.05263 6.25 3.034 5.48476 2.65648 4.41667H1.58333C1.07707 4.41667 0.666668 4.00626 0.666668 3.5C0.666668 2.99374 1.07707 2.58333 1.58333 2.58333H2.65648ZM10.75 8.08333C10.2437 8.08333 9.83333 8.49374 9.83333 9C9.83333 9.50626 10.2437 9.91667 10.75 9.91667C11.2563 9.91667 11.6667 9.50626 11.6667 9C11.6667 8.49374 11.2563 8.08333 10.75 8.08333ZM8.15648 8.08333C8.534 7.01524 9.55263 6.25 10.75 6.25C11.9474 6.25 12.966 7.01524 13.3435 8.08333H14.4167C14.9229 8.08333 15.3333 8.49374 15.3333 9C15.3333 9.50626 14.9229 9.91667 14.4167 9.91667H13.3435C12.966 10.9848 11.9474 11.75 10.75 11.75C9.55263 11.75 8.534 10.9848 8.15648 9.91667H1.58333C1.07707 9.91667 0.666668 9.50626 0.666668 9C0.666668 8.49374 1.07707 8.08333 1.58333 8.08333H8.15648ZM5.25 13.5833C4.74374 13.5833 4.33333 13.9937 4.33333 14.5C4.33333 15.0063 4.74374 15.4167 5.25 15.4167C5.75626 15.4167 6.16667 15.0063 6.16667 14.5C6.16667 13.9937 5.75626 13.5833 5.25 13.5833ZM2.65648 13.5833C3.034 12.5152 4.05263 11.75 5.25 11.75C6.44737 11.75 7.466 12.5152 7.84352 13.5833H14.4167C14.9229 13.5833 15.3333 13.9937 15.3333 14.5C15.3333 15.0063 14.9229 15.4167 14.4167 15.4167H7.84352C7.466 16.4848 6.44737 17.25 5.25 17.25C4.05263 17.25 3.034 16.4848 2.65648 15.4167H1.58333C1.07707 15.4167 0.666668 15.0063 0.666668 14.5C0.666668 13.9937 1.07707 13.5833 1.58333 13.5833H2.65648Z" fill="white"/>
</svg>
